<?xml version="1.0" encoding="UTF-8"?>
<!DOCTYPE svg PUBLIC "-//W3C//DTD SVG 1.1//EN" "http://www.w3.org/Graphics/SVG/1.1/DTD/svg11.dtd">
<svg xmlns="http://www.w3.org/2000/svg" version="1.1" width="136px" height="136px" style="shape-rendering:geometricPrecision; text-rendering:geometricPrecision; image-rendering:optimizeQuality; fill-rule:evenodd; clip-rule:evenodd" xmlns:xlink="http://www.w3.org/1999/xlink">
<g><path style="opacity:1" fill="#397dfa" d="M 99.5,32.5 C 104.267,32.1908 108.934,32.6908 113.5,34C 114.424,37.1948 114.09,40.3615 112.5,43.5C 118.328,65.9991 111.328,83.1658 91.5,95C 72.5331,102.444 55.8664,99.1112 41.5,85C 49.8333,84.6667 58.1667,84.3333 66.5,84C 81.0185,78.1503 87.8518,67.3169 87,51.5C 86.4427,49.3853 85.6094,47.3853 84.5,45.5C 87.9912,39.3365 92.9912,35.0032 99.5,32.5 Z M 96.5,39.5 C 101.159,39.0146 102.492,40.848 100.5,45C 95.7107,45.8446 94.3774,44.0113 96.5,39.5 Z"/></g>
<g><path style="opacity:1" fill="#38bbfa" d="M 22.5,41.5 C 40.5031,41.3334 58.5031,41.5001 76.5,42C 82.1107,44.7119 85.1107,49.2119 85.5,55.5C 83.3965,74.4442 72.8965,83.4442 54,82.5C 49.0835,82.5775 44.2502,82.0775 39.5,81C 35.5,77.3333 35.5,73.6667 39.5,70C 45.5275,69.8303 51.5275,69.3303 57.5,68.5C 47.8505,67.6679 38.1838,67.1679 28.5,67C 24.5,63.3333 24.5,59.6667 28.5,56C 36.1883,55.8315 43.8549,55.3315 51.5,54.5C 41.8505,53.6679 32.1838,53.1679 22.5,53C 18.5673,49.1238 18.5673,45.2905 22.5,41.5 Z"/></g>
</svg>
